PathFileType	4	(X/Y/Z)	Patient4_TMGait_0pt7_02_left_34.trc.trc
DataRate	CameraRate	NumFrames	NumMarkers	Units	OrigDataRate	OrigDataStartFrame	OrigNumFrames
85.889570552147	85.889570552147	4	33	mm	85.889570552147	36	       141
Frame#	Time	Sacral			L.Shoulder			Chest			R.Shoulder			Neck			R.ASIS			L.ASIS			R.Thigh.Superior			R.Thigh.Lateral			R.Thigh.Inferior			R.Patella			L.Thigh.Superior			L.Thigh.Lateral			L.Thigh.Inferior			L.Patella			L.Shank.Superior			L.Shank.Lateral			L.Shank.Inferior			R.Shank.Superior			R.Shank.Lateral			R.Shank.Inferior			R.Heel			R.Midfoot.Superior			R.Midfoot.Lateral			R.Toe			L.Heel			L.Midfoot.Lateral			L.Midfoot.Superior			L.Toe			L.Elbow			L.Wrist			R.Elbow			R.Wrist			
		X1	Y1	Z1	X2	Y2	Z2	X3	Y3	Z3	X4	Y4	Z4	X5	Y5	Z5	X6	Y6	Z6	X7	Y7	Z7	X8	Y8	Z8	X9	Y9	Z9	X10	Y10	Z10	X11	Y11	Z11	X12	Y12	Z12	X13	Y13	Z13	X14	Y14	Z14	X15	Y15	Z15	X16	Y16	Z16	X17	Y17	Z17	X18	Y18	Z18	X19	Y19	Z19	X20	Y20	Z20	X21	Y21	Z21	X22	Y22	Z22	X23	Y23	Z23	X24	Y24	Z24	X25	Y25	Z25	X26	Y26	Z26	X27	Y27	Z27	X28	Y28	Z28	X29	Y29	Z29	X30	Y30	Z30	X31	Y31	Z31	X32	Y32	Z32	X33	Y33	Z33	

36	39.277500000000	857.256568239919	1007.994933002764	464.589804811637	1040.991593479763	1420.260795635716	268.706881636726	1157.791987249343	1342.344996406407	417.549999461525	1101.618639015353	1426.419388793468	596.750925007369	1066.886835042051	1481.443654425488	421.426806813831	1079.536827159143	928.836666123389	575.801698973633	1061.870750778901	941.486518031244	301.223924180681	1071.631762877752	715.674189764625	559.106521795703	963.844853545454	627.110569497336	621.737112814810	1027.806112033861	553.950401517282	549.360347382414	1002.851464840981	457.766566997028	562.546362713204	1138.791378672149	765.633119419809	341.754557994065	1083.137078306293	635.464756499866	271.227355729326	1182.606451868054	573.744832738801	334.942643064630	1198.710997359575	500.419457167449	340.298518862133	1172.112413513341	423.994876986019	329.881177678648	1087.740794290676	309.876892854724	269.698886495493	1138.679009273362	196.055267924046	336.276440089180	937.743265177272	387.778524599058	569.524342646738	829.250930506883	324.396878217492	632.491411606117	831.661961166561	216.905374391478	575.952270814163	644.190199824471	97.858217276758	553.582158176050	825.744236575973	104.356556887788	583.347258966831	725.369567780093	63.320507533290	621.841738977691	926.422047706054	36.846136746962	599.785965963498	1012.385494226965	39.190205941955	365.244947740318	1090.353075855173	36.722932796659	288.329412241437	1171.556869506357	97.785681663458	319.986319242798	1301.638555280339	45.295727417882	297.464605135701	884.265970731010	1103.207673673865	180.788657058954	846.083742255853	844.981111036682	219.604963230149	1227.053910201126	1110.539374988012	702.562839711002	1415.151122201051	1233.625944755009	594.678897532469	
37	39.289142857143	857.128436710220	1009.504578799233	461.614942364338	1040.881442200754	1422.074261520144	266.521537261171	1157.576289517680	1344.088733456438	415.383995791627	1101.067834177986	1427.860180019229	594.691893657267	1066.640589447784	1483.041619762870	419.308089559426	1079.252200640117	930.164375179386	572.767776701186	1061.997730554576	943.224030545339	298.488101026992	1074.112828258949	717.234361257142	557.276213520999	967.713120165364	627.516697096306	619.961640826551	1033.667529343433	554.662372553525	548.378784333476	1009.448665058766	456.863063282273	563.162275187614	1137.597150531379	765.026659903039	338.580589180333	1079.597963225828	635.210048395194	269.566029718927	1178.261401411335	572.607753311552	333.580836081452	1193.430024095219	499.522824689966	339.563924060598	1166.323650674230	423.460114904667	329.082394868212	1081.393929190878	309.706366014061	269.139058621001	1131.474783164564	195.838466357631	336.171875633317	941.847896228714	388.231813795784	569.913593063717	830.918371926569	328.487927053950	632.150618843994	831.154310068030	220.275356413051	576.941799008334	640.297609397013	107.599777026445	554.316008831059	821.852595699219	105.874385161490	584.485663819376	719.661780095915	68.733400223971	622.193291353141	918.527467677196	36.500524412401	599.609302136105	1004.392237488049	39.162220374779	365.194419985628	1082.361922782085	36.727380990957	288.296984134646	1163.612975829446	97.741731867593	319.997565782976	1293.696643204128	45.019716112900	297.418015752070	888.142525491313	1102.926734436168	176.901122059317	857.744167975671	843.255611528344	212.427511175087	1219.228490751273	1108.683868668915	701.930364006539	1410.589392448524	1226.240902955327	593.603452564709	
38	39.300785714286	856.827107400092	1011.064073066964	458.660470636865	1040.914995253199	1423.915433468029	264.369437547774	1157.353536015310	1345.798093785638	413.314534991382	1100.378945710017	1429.265510680391	592.700770729993	1066.334356705836	1484.622521067033	417.221919334679	1078.806350611602	931.500070616733	569.814971445690	1062.000350030733	944.909555939673	295.885620961094	1077.020441951191	718.936787793497	555.402219957202	972.337691392563	627.863788986058	618.230216954334	1040.287252813797	555.501199223873	547.242289694620	1016.906417608546	456.120957692502	563.516392207661	1135.967801147832	764.268145189534	335.641636414218	1075.733173723540	635.037415411898	267.897982726490	1173.415900742458	571.489975116207	332.384345643766	1187.618268543866	498.633157255435	338.840555662083	1160.053065777894	422.961112217766	328.244971914484	1074.641576433648	309.488445513924	268.592434796198	1124.067940139175	195.647008877745	336.052568304271	946.904592460755	388.799606012518	570.153834474581	833.687915451148	332.869238486528	631.775158754214	831.542942060311	224.024954945535	577.889276103447	637.474528392790	118.555609269624	555.106878729277	818.495780203436	107.707105041755	585.622246031539	714.572984672811	75.127932961815	622.580820060873	910.620508712636	35.943792370074	599.453742533584	996.382032307190	39.123976960354	365.199765839630	1074.335580322286	36.690535260115	288.300505088756	1155.655808096849	97.632919669637	320.010169782181	1285.728983936204	44.655842585204	297.372781297147	892.002414171448	1102.885281525165	172.913683746579	870.328400490126	841.923760594412	204.978709720044	1210.743797492690	1106.858502192191	701.367019125489	1406.137470647981	1217.337214406768	592.871223956871	
39	39.312428571429	856.308053909799	1012.623003889932	455.750254099034	1041.093134048813	1425.731662054781	262.268483707026	1157.106041751772	1347.396218913452	411.365363773342	1099.562074020056	1430.588551612416	590.789031286566	1065.971069598170	1486.139995786821	415.191279197446	1078.166771852803	932.811275939677	566.977768419231	1061.827876356131	946.500645847630	293.392425280657	1080.332074791160	720.803160627022	553.435675214127	977.778736891128	628.159440119598	616.531918280810	1047.667464333398	556.497073393448	545.878858410894	1025.247226529567	455.576748983489	563.507985360515	1133.962021619021	763.466283103693	332.963241598140	1071.654389582930	634.992719662541	266.215231465462	1168.202020229993	570.446380617561	331.297203994547	1181.420392039339	497.786059774050	338.083275031483	1153.440130257404	422.506222204597	327.354005364912	1067.593824868829	309.257210057830	268.022109627887	1116.507335690543	195.482902385458	335.896893096313	952.961667188504	389.482542182567	570.157818939470	837.638571145990	337.525572257885	631.319980169419	832.892065405493	228.167094796653	578.731602239755	635.897322729739	130.761493492948	555.907904817659	815.724974137718	109.946986099439	586.709256399619	710.237331182994	82.608684697296	622.979247674649	902.725423692076	35.125339955947	599.347201252509	988.336532482737	39.092455730300	365.235511514731	1066.262069407937	36.631767273390	288.321100035724	1147.669756607134	97.483479689627	320.013297697642	1277.722899957051	44.236350721147	297.324433738636	895.889397143128	1103.015596811601	168.829685740865	883.835422494510	841.025500379344	197.335689281233	1201.681873038634	1105.057319608802	700.819217826055	1401.756152047980	1206.871053613321	592.537164353856	
